<svg width="76" height="27" viewBox="0 0 76 27" fill="none" xmlns="http://www.w3.org/2000/svg">
<path d="M25.568 3.176C24.92 3.2 24.428 3.284 24.092 3.428C23.756 3.548 23.492 3.824 23.3 4.256C23.108 4.688 23.012 5.372 23.012 6.308V26.36H19.952L8.432 11.636C7.832 10.868 7.172 9.968 6.452 8.936H6.416L6.488 20.096C6.488 21.44 6.44 22.52 6.344 23.336C7.112 23.264 8.012 23.228 9.044 23.228V26H0.836V23.624C1.484 23.6 1.976 23.528 2.312 23.408C2.648 23.264 2.912 22.976 3.104 22.544C3.296 22.112 3.392 21.428 3.392 20.492L3.32 6.704C3.32 5.096 3.368 4.016 3.464 3.464L0.728 3.572V0.799998H6.38L17.396 14.696C18.404 16.016 19.244 17.156 19.916 18.116H19.952V6.704C19.952 5.144 19.988 4.064 20.06 3.464L17.36 3.572V0.799998H25.568V3.176ZM40.7038 0.223999C41.6638 0.223999 42.6958 0.379999 43.7998 0.692C44.9278 1.004 45.9598 1.436 46.8958 1.988H46.9318L46.7878 0.475998H49.5598V8.864H47.2198C46.5718 4.88 44.5558 2.864 41.1718 2.816C39.5638 2.816 38.1958 3.296 37.0678 4.256C35.9638 5.192 35.1358 6.44 34.5838 8C34.0318 9.56 33.7558 11.24 33.7558 13.04C33.7558 15.104 34.0558 16.94 34.6558 18.548C35.2558 20.156 36.1198 21.416 37.2478 22.328C38.3758 23.216 39.7318 23.66 41.3158 23.66C42.8518 23.66 44.3518 23.264 45.8158 22.472C47.3038 21.68 48.5518 20.6 49.5598 19.232L51.2878 20.816C49.7038 23 47.9638 24.512 46.0678 25.352C44.1718 26.168 42.2998 26.576 40.4518 26.576C38.0278 26.576 35.8798 26.012 34.0078 24.884C32.1358 23.756 30.6838 22.22 29.6518 20.276C28.6198 18.308 28.1038 16.136 28.1038 13.76C28.1038 11.48 28.5838 9.308 29.5438 7.244C30.5278 5.156 31.9678 3.464 33.8638 2.168C35.7598 0.871999 38.0398 0.223999 40.7038 0.223999ZM63.6529 0.727999C66.9409 0.704 69.4729 1.28 71.2489 2.456C73.0489 3.632 73.9489 5.54 73.9489 8.18C73.9489 9.836 73.4089 11.312 72.3289 12.608C71.2729 13.88 69.7009 14.816 67.6129 15.416V15.452C68.0449 15.62 68.4889 15.92 68.9449 16.352C69.4009 16.76 69.7849 17.216 70.0969 17.72L71.7889 20.24C72.6049 21.512 73.2769 22.388 73.8049 22.868C74.3569 23.348 75.0289 23.6 75.8209 23.624V26H69.8809C69.4729 25.712 69.0649 25.304 68.6569 24.776C68.2489 24.224 67.7809 23.504 67.2529 22.616L64.5889 18.296C63.9889 17.336 63.4849 16.64 63.0769 16.208H61.2049V20.06C61.2049 21.428 61.1569 22.52 61.0609 23.336C61.8289 23.264 62.8489 23.228 64.1209 23.228V26H53.4289V23.624C54.0769 23.6 54.5689 23.528 54.9049 23.408C55.2409 23.264 55.5049 22.976 55.6969 22.544C55.8889 22.112 55.9849 21.428 55.9849 20.492V6.704C55.9849 5.36 56.0329 4.28 56.1289 3.464L53.4289 3.572V0.799998L63.6529 0.727999ZM63.6169 3.248C62.7769 3.248 62.1649 3.428 61.7809 3.788C61.3969 4.148 61.2049 4.916 61.2049 6.092V13.472C61.9249 13.568 62.5009 13.616 62.9329 13.616C64.9009 13.616 66.3169 13.184 67.1809 12.32C68.0689 11.432 68.5129 10.052 68.5129 8.18C68.5129 6.188 67.9969 4.868 66.9649 4.22C65.9569 3.572 64.8409 3.248 63.6169 3.248Z" fill="#A1AD88"/>
</svg>
